<svg xmlns="http://www.w3.org/2000/svg" width="91" height="31" viewBox="0 0 91 31">
    <g fill="#1676CF">
        <path d="M42.362 8.916c-1.732-.973-3.665-1.46-5.84-1.46-2.174 0-4.147.487-5.878 1.46-1.732.972-3.06 2.35-4.027 4.093-.966 1.743-1.45 3.728-1.45 5.957 0 2.189.484 4.175 1.45 5.917.966 1.743 2.295 3.08 4.027 4.093 1.731.973 3.704 1.46 5.879 1.46 2.174 0 4.148-.487 5.88-1.46 1.73-.972 3.06-2.35 4.026-4.093.966-1.742 1.45-3.728 1.45-5.917 0-2.229-.484-4.214-1.45-5.957-1.007-1.783-2.336-3.12-4.067-4.093zm.523 14.022c-.604 1.175-1.49 2.107-2.577 2.756-1.087.648-2.376 1.013-3.745 1.013-1.369 0-2.657-.324-3.745-1.013-1.127-.649-1.973-1.58-2.617-2.756-.644-1.175-.926-2.513-.926-4.012 0-1.5.322-2.837.926-4.012.644-1.176 1.49-2.108 2.617-2.756 1.128-.649 2.376-1.013 3.745-1.013 1.37 0 2.658.324 3.745 1.013 1.128.648 1.973 1.58 2.577 2.756.604 1.175.926 2.512.926 4.012 0 1.5-.281 2.837-.926 4.012zM61.207 11.145c1.047 0 1.973.162 2.779.527.805.364 1.57.891 2.255 1.62.443.487.966.73 1.61.73.363 0 .685-.08.927-.284.604-.405.885-.932.885-1.54 0-.405-.12-.77-.402-1.094-2.134-2.472-4.832-3.728-8.054-3.728-2.134 0-4.067.486-5.758 1.459-1.691.972-3.02 2.35-3.987 4.093-.926 1.743-1.41 3.728-1.41 5.957 0 2.148.484 4.093 1.45 5.877.967 1.742 2.336 3.12 4.068 4.133 1.731 1.013 3.664 1.5 5.838 1.5 2.98 0 5.437-.932 7.41-2.756.322-.324.483-.689.483-1.135 0-.567-.242-1.053-.765-1.5-.322-.242-.685-.364-1.087-.364-.484 0-1.007.203-1.53.567-1.168.973-2.658 1.46-4.51 1.46-1.41 0-2.698-.325-3.786-1.014-1.127-.648-1.973-1.58-2.577-2.756-.604-1.175-.926-2.512-.926-4.012 0-2.35.644-4.214 1.973-5.633 1.289-1.378 2.98-2.107 5.114-2.107zM89.596 27.234l-7.973-9.848 7.57-6.768c.443-.365.645-.81.645-1.419 0-.486-.161-.932-.524-1.296-.362-.446-.805-.649-1.41-.649-.482 0-.925.162-1.288.527l-9.986 8.997V2.35c0-.608-.202-1.095-.564-1.46-.362-.364-.846-.567-1.45-.567s-1.087.203-1.45.568c-.362.364-.563.85-.563 1.459v25.855c0 .608.201 1.095.564 1.46.362.364.845.567 1.45.567.603 0 1.087-.203 1.449-.568.362-.364.564-.85.564-1.459v-6.322l2.053-1.823 7.812 9.726c.403.486.886.73 1.49.73.483 0 .886-.163 1.33-.487.482-.405.724-.932.724-1.54 0-.486-.161-.892-.443-1.256zM20.577.324c-.604 0-1.087.203-1.49.568-.403.405-.604.891-.604 1.54V16.98h-.04c0 .04 0 .08.04.121v1.094c0 2.756-.08 4.54-2.456 6.809-.282.243-.604.446-.927.648-1.127.69-2.335 1.013-3.704 1.013-1.37 0-2.618-.324-3.705-1.013-1.127-.689-1.973-1.62-2.617-2.796-.645-1.175-.967-2.513-.967-3.972s.322-2.796.967-3.971c.644-1.176 1.53-2.108 2.617-2.756 1.007-.608 2.094-.932 3.262-1.013l-1.45 1.459c-.765.77-.765 2.067 0 2.877.765.77 2.054.77 2.86 0l4.75-4.782c.766-.77.766-2.067 0-2.877l-4.791-4.783c-.765-.77-2.054-.77-2.86 0-.764.77-.764 2.067 0 2.878l1.531 1.54h-.443c-1.973 0-3.745.486-5.355 1.5-1.611 1.012-2.86 2.35-3.786 4.133C.443 14.792 0 16.737 0 18.885s.483 4.093 1.49 5.877c1.007 1.742 2.335 3.12 4.107 4.133 1.732 1.013 3.665 1.5 5.759 1.5 2.093 0 4.026-.487 5.718-1.5 1.731-1.013 3.06-2.39 4.067-4.133 1.006-1.743 1.49-3.688 1.49-5.877V2.432c0-.649-.202-1.135-.564-1.54-.363-.365-.886-.568-1.49-.568z"/>
    </g>
</svg>
